<?xml version="1.0" standalone="no"?>
<!DOCTYPE svg PUBLIC "-//W3C//DTD SVG 20010904//EN"
 "http://www.w3.org/TR/2001/REC-SVG-20010904/DTD/svg10.dtd">
<svg version="1.0" xmlns="http://www.w3.org/2000/svg"
 width="190.000000pt" height="220.000000pt" viewBox="0 0 190.000000 220.000000"
 preserveAspectRatio="xMidYMid meet" fill="white">

<g transform="translate(0.000000,220.000000) scale(0.100000,-0.100000)"
fill="#000000" stroke="none">
<path d="M766 2031 c-3 -5 35 -182 84 -392 50 -211 117 -501 151 -644 34 -143
64 -273 68 -290 8 -31 35 -46 43 -23 3 7 -28 150 -67 318 -40 168 -107 454
-149 635 -43 182 -82 347 -87 368 -9 35 -31 49 -43 28z"/>
<path d="M1030 1909 c-21 -71 -19 -99 4 -66 17 22 42 22 55 0 18 -33 24 -3 11
54 -23 105 -42 108 -70 12z m40 -11 c0 -16 -3 -19 -11 -11 -6 6 -8 16 -5 22
11 17 16 13 16 -11z"/>
<path d="M910 1953 c0 -59 14 -123 26 -123 8 0 14 10 14 24 0 17 7 26 24 30
29 7 41 37 26 66 -15 27 -90 30 -90 3z m65 -28 c0 -11 -8 -21 -17 -23 -14 -3
-18 3 -18 23 0 20 4 26 18 23 9 -2 17 -12 17 -23z"/>
<path d="M1145 1923 c-3 -26 -9 -58 -12 -70 -4 -17 -1 -23 11 -23 9 0 16 8 16
20 0 30 17 24 29 -10 14 -42 35 -39 27 4 -5 24 -2 37 9 46 18 15 20 44 3 58
-7 5 -27 13 -44 16 -31 7 -32 7 -39 -41z m63 -6 c2 -12 -3 -17 -17 -17 -12 0
-21 6 -21 13 0 31 32 34 38 4z"/>
<path d="M1257 1876 c-20 -77 -20 -76 -4 -76 8 0 21 25 30 60 20 72 21 80 4
80 -7 0 -20 -27 -30 -64z"/>
<path d="M1331 1906 c-14 -17 -7 -48 14 -66 18 -15 20 -40 4 -40 -7 0 -18 8
-25 17 -7 10 -16 15 -19 11 -12 -12 3 -38 29 -50 51 -23 76 35 34 79 -27 29
-11 55 16 27 20 -20 35 -10 20 14 -14 22 -57 27 -73 8z"/>
<path d="M623 1890 c-13 -5 -23 -12 -23 -14 0 -7 49 -119 54 -124 2 -2 20 4
40 12 28 12 36 21 36 40 0 14 -6 29 -14 33 -8 4 -16 19 -18 33 -3 28 -36 36
-75 20z m52 -31 c0 -7 -8 -15 -17 -17 -18 -3 -25 18 -11 32 10 10 28 1 28 -15z
m22 -63 c-4 -9 -11 -16 -16 -16 -15 0 -23 33 -9 41 17 11 32 -5 25 -25z"/>
<path d="M1424 1824 c-38 -85 -20 -105 21 -24 18 36 31 68 28 73 -11 18 -26 3
-49 -49z"/>
<path d="M548 1854 c-3 -3 5 -25 19 -50 24 -42 25 -74 4 -74 -5 0 -22 22 -37
49 -17 32 -31 48 -40 44 -11 -4 -8 -16 13 -55 34 -62 56 -75 89 -53 31 20 30
46 -2 101 -25 42 -34 50 -46 38z"/>
<path d="M1478 1800 c-35 -63 -35 -75 2 -90 37 -15 52 -5 22 16 -28 20 -18 48
14 40 28 -7 31 2 7 20 -14 10 -15 15 -6 25 10 10 15 9 28 -1 11 -9 19 -10 27
-2 7 7 1 15 -20 26 -17 9 -35 16 -39 16 -4 0 -20 -23 -35 -50z"/>
<path d="M1566 1739 c-25 -34 -35 -54 -28 -61 7 -7 16 -2 27 16 24 37 34 32
24 -11 -6 -27 -4 -42 4 -50 10 -10 21 -1 55 43 46 60 48 93 2 49 l-28 -27 5
46 c7 62 -12 61 -61 -5z"/>
<path d="M405 1759 c-6 -9 12 -41 60 -103 13 -18 15 -18 44 4 32 22 43 47 16
36 -8 -3 -21 -8 -28 -11 -8 -3 -27 13 -46 40 -35 49 -37 50 -46 34z"/>
<path d="M938 1754 c-10 -3 -18 -8 -18 -11 0 -17 97 -342 139 -465 90 -264
191 -475 297 -619 51 -69 173 -199 215 -230 27 -19 27 -19 54 8 50 50 124 175
155 261 18 50 35 124 42 181 34 291 -128 620 -381 770 -38 22 -111 55 -162 72
-78 26 -112 32 -209 35 -63 1 -123 1 -132 -2z"/>
<path d="M341 1703 c-32 -22 -27 -66 10 -97 17 -14 39 -26 49 -26 26 0 52 28
48 53 -5 31 -28 34 -28 3 0 -38 -17 -40 -51 -7 -34 35 -34 56 1 56 13 0 25 5
27 11 6 18 -34 23 -56 7z"/>
<path d="M698 1686 c-373 -163 -552 -578 -423 -983 34 -107 97 -206 189 -299
99 -99 260 -196 300 -181 7 3 28 45 46 94 112 310 112 667 0 1279 -11 59 -20
111 -20 116 0 13 -10 10 -92 -26z"/>
<path d="M180 1508 c-45 -38 -44 -44 17 -88 l58 -41 17 22 c23 28 23 71 0 92
-26 23 -74 31 -92 15z m70 -38 c17 -17 19 -50 2 -50 -14 0 -72 52 -67 61 10
15 44 10 65 -11z"/>
<path d="M112 1397 c-6 -6 -13 -23 -16 -37 -6 -23 -1 -27 46 -48 29 -12 59
-22 66 -22 20 0 14 18 -10 32 -22 12 -22 13 11 18 43 6 54 30 14 30 -17 0 -33
8 -41 20 -14 22 -54 27 -70 7z m54 -28 c3 -6 1 -16 -4 -21 -13 -13 -45 8 -36
23 7 12 31 11 40 -2z"/>
<path d="M50 1261 c0 -7 81 -71 107 -86 9 -5 -24 -65 -33 -61 -6 2 -33 8 -59
12 -38 5 -47 4 -43 -7 4 -13 124 -46 134 -37 2 3 8 29 14 58 7 39 7 56 -1 61
-16 9 -4 39 16 39 8 0 15 7 15 15 0 12 -15 15 -75 15 -41 0 -75 -4 -75 -9z
m90 -21 c0 -5 -7 -10 -15 -10 -8 0 -15 5 -15 10 0 6 7 10 15 10 8 0 15 -4 15
-10z"/>
<path d="M130 1040 c0 -18 -7 -20 -60 -20 -47 0 -60 -3 -60 -15 0 -12 13 -15
60 -15 33 0 63 -1 67 -2 4 -2 10 14 14 35 4 27 2 37 -8 37 -7 0 -13 -9 -13
-20z"/>
<path d="M10 945 c0 -12 14 -15 70 -15 56 0 70 3 70 15 0 12 -14 15 -70 15
-56 0 -70 -3 -70 -15z"/>
<path d="M86 902 c-3 -5 -19 -7 -35 -4 -26 3 -31 0 -36 -21 -12 -47 -3 -62 40
-65 21 -2 54 -1 72 3 30 5 32 8 26 38 -3 18 -10 38 -16 45 -11 14 -43 16 -51
4z m44 -42 c0 -21 -24 -28 -35 -10 -8 14 3 30 21 30 8 0 14 -9 14 -20z m-60
-5 c0 -8 -7 -15 -15 -15 -8 0 -15 7 -15 15 0 8 7 15 15 15 8 0 15 -7 15 -15z"/>
<path d="M1089 487 c-105 -69 -98 -233 13 -283 75 -34 154 -14 204 51 36 47
38 126 4 179 -44 72 -153 99 -221 53z"/>
</g>
</svg>
